<?xml version="1.0" encoding="UTF-8"?>
<svg xmlns="http://www.w3.org/2000/svg" xmlns:xlink="http://www.w3.org/1999/xlink" width="129px" height="31px" viewBox="0 0 128 31" version="1.1">
<g id="surface1">
<path style=" stroke:none;fill-rule:evenodd;fill:rgb(0%,60%,80%);fill-opacity:1;" d="M 32.078125 4.515625 C 32.398438 4.039062 32.566406 3.476562 32.566406 2.902344 C 32.566406 2.132812 32.261719 1.394531 31.71875 0.851562 C 31.179688 0.308594 30.445312 0 29.679688 0 C 29.109375 0 28.550781 0.171875 28.078125 0.488281 C 27.605469 0.808594 27.234375 1.261719 27.015625 1.792969 C 26.796875 2.324219 26.738281 2.90625 26.851562 3.46875 C 26.960938 4.03125 27.238281 4.550781 27.640625 4.957031 C 28.042969 5.363281 28.558594 5.640625 29.117188 5.75 C 29.675781 5.863281 30.257812 5.804688 30.785156 5.585938 C 31.3125 5.367188 31.761719 4.992188 32.078125 4.515625 Z M 23.113281 30.203125 L 18.304688 30.203125 L 18.304688 27.460938 C 16.644531 29.445312 13.402344 30.917969 10.648438 30.917969 C 5.007812 30.917969 0 26.386719 0 19.03125 C 0 12.277344 4.902344 7.386719 10.972656 7.386719 C 15.429688 7.386719 18.074219 10.605469 18.230469 10.921875 L 18.308594 10.921875 L 18.308594 8.140625 L 23.121094 8.140625 Z M 11.75 12.234375 C 7.453125 12.234375 5.246094 15.96875 5.246094 19.28125 C 5.246094 23.019531 8.007812 26.082031 11.75 26.082031 C 15.378906 26.082031 18.144531 23.21875 18.144531 19.121094 C 18.144531 14.539062 14.871094 12.234375 11.75 12.234375 Z M 27.058594 8.140625 L 32.300781 8.140625 L 32.300781 30.203125 L 27.058594 30.203125 Z M 36.914062 8.140625 L 41.734375 8.140625 L 41.734375 10.820312 L 41.8125 10.820312 C 42.800781 9.390625 43.785156 8.117188 46.507812 8.117188 L 46.941406 8.117188 L 46.941406 13.246094 C 42.167969 13.449219 42.167969 17.222656 42.167969 18.535156 L 42.167969 30.203125 L 36.914062 30.203125 Z M 53.089844 8.140625 L 47.488281 8.140625 L 55.375 30.203125 L 58.613281 30.203125 L 62.742188 15.894531 L 62.84375 15.894531 L 66.945312 30.203125 L 70.164062 30.203125 L 78.167969 8.140625 L 72.566406 8.140625 L 68.539062 21.613281 L 68.464844 21.613281 L 64.914062 8.140625 L 60.730469 8.140625 L 57.140625 21.613281 L 57.070312 21.613281 Z M 84.574219 21.535156 C 84.804688 22.96875 86.863281 26.070312 90.609375 26.070312 C 92.941406 26.070312 94.671875 25.074219 95.65625 23.25 L 101.179688 23.25 C 99.917969 27.226562 95.738281 30.921875 90.609375 30.921875 C 89.085938 30.925781 87.574219 30.628906 86.167969 30.042969 C 84.757812 29.457031 83.480469 28.59375 82.402344 27.507812 C 81.328125 26.421875 80.480469 25.128906 79.902344 23.710938 C 79.328125 22.289062 79.039062 20.769531 79.050781 19.234375 C 79.050781 12.996094 83.824219 7.273438 90.570312 7.273438 C 97.507812 7.273438 101.890625 13.3125 101.890625 18.878906 C 101.882812 19.773438 101.777344 20.667969 101.574219 21.539062 Z M 96.527344 17.285156 C 95.933594 13.746094 93.210938 12.117188 90.609375 12.117188 C 88.675781 12.117188 85.402344 13.1875 84.414062 17.285156 Z M 110.171875 0.789062 L 104.925781 0.789062 L 104.925781 30.203125 L 109.738281 30.203125 L 109.738281 27.539062 C 111.042969 29.007812 112.894531 30.917969 117.113281 30.917969 C 125.121094 30.917969 128 23.484375 128 19.074219 C 128 13.230469 123.664062 7.386719 116.996094 7.386719 C 114.550781 7.386719 111.988281 8.300781 110.171875 10.128906 Z M 122.734375 19.109375 C 122.734375 23.40625 119.863281 26.070312 116.433594 26.070312 C 113.367188 26.070312 109.855469 23.761719 109.855469 18.875 C 109.855469 15.652344 112.339844 12.234375 116.367188 12.234375 C 119.679688 12.234375 122.734375 14.816406 122.734375 19.109375 Z M 122.734375 19.109375 "/>
</g>
</svg>
